PathFileType	4	(X/Y/Z)	C:\Users\Basilio\Documents\Thesis Gigler\squatting_fais\c3dfiles\076\SLS_back_pre1\markers_experimental.trc
DataRate	CameraRate	NumFrames	NumMarkers	Units	OrigDataRate	OrigDataStartFrame	OrigNumFrames
200.000000	200.000000	4	61	mm	200.000000	288	2311
Frame#	Time	FHD			LBHD			RBHD			C7			T10			CLAV			LSHO			LUUPA			LMUPA			LDUPA			LLEP			LMEP			LRAD			LUL			LRFIN			RSHO			RUPA1			RMUPA			RDUPA			RLEP			RMEP			RRAD			RUL			RUFIN			LASI			RASI			USACR			LSACR			RSACR			LTHI1			LTHI2			LTHI3			LTHI4			LLFC			LMFC			LTIB1			LTIB2			LTIB3			LTIB4			LLMAL			LMMAL			LHEE			LMT1			LMT2			LMT5			RTHI			RTHI2			RTHI3			RTHI4			RLFC			RMFC			RTIB1			RTIB2			RTIB3			RTIB4			RLMAL			RMMAL			RHEE			RMT1			RMT2			RMT5			
		X1	Y1	Z1	X2	Y2	Z2	X3	Y3	Z3	X4	Y4	Z4	X5	Y5	Z5	X6	Y6	Z6	X7	Y7	Z7	X8	Y8	Z8	X9	Y9	Z9	X10	Y10	Z10	X11	Y11	Z11	X12	Y12	Z12	X13	Y13	Z13	X14	Y14	Z14	X15	Y15	Z15	X16	Y16	Z16	X17	Y17	Z17	X18	Y18	Z18	X19	Y19	Z19	X20	Y20	Z20	X21	Y21	Z21	X22	Y22	Z22	X23	Y23	Z23	X24	Y24	Z24	X25	Y25	Z25	X26	Y26	Z26	X27	Y27	Z27	X28	Y28	Z28	X29	Y29	Z29	X30	Y30	Z30	X31	Y31	Z31	X32	Y32	Z32	X33	Y33	Z33	X34	Y34	Z34	X35	Y35	Z35	X36	Y36	Z36	X37	Y37	Z37	X38	Y38	Z38	X39	Y39	Z39	X40	Y40	Z40	X41	Y41	Z41	X42	Y42	Z42	X43	Y43	Z43	X44	Y44	Z44	X45	Y45	Z45	X46	Y46	Z46	X47	Y47	Z47	X48	Y48	Z48	X49	Y49	Z49	X50	Y50	Z50	X51	Y51	Z51	X52	Y52	Z52	X53	Y53	Z53	X54	Y54	Z54	X55	Y55	Z55	X56	Y56	Z56	X57	Y57	Z57	X58	Y58	Z58	X59	Y59	Z59	X60	Y60	Z60	X61	Y61	Z61	

289	1.44	-247.5000762939454	1639.136352539063	-1100.888427734375	-383.5016784667969	1558.509521484375	-1008.467041015625	-235.6195983886719	1563.135009765625	-969.5312500000002	-383.6216125488282	1449.289306640625	-972.2182617187502	-417.5659790039064	1126.058349609375	-979.1651000976565	-267.2033691406251	1373.141357421875	-1036.558715820313	-401.6440429687501	1404.545654296875	-1160.068481445313	-466.3455200195314	1253.904663085938	-1276.828491210938	-442.6302795410157	1210.043701171875	-1269.748168945313	-487.4000549316407	1195.853759765625	-1309.023071289063	-507.662811279297	1146.963134765625	-1331.175048828125	-564.4417724609376	1130.382080078125	-1263.906372070313	-411.1945190429689	996.3003540039065	-1169.583618164063	-384.3770446777345	963.0291137695315	-1218.41015625	-359.5660400390626	1019.552001953125	-1172.221923828125	-275.0293273925782	1400.663208007813	-855.1044921875002	-273.4345703125001	1272.140380859375	-704.7576293945314	-240.9552154541016	1234.776245117188	-712.8810424804689	-266.6620788574219	1216.3125	-660.8398437500001	-249.5145416259766	1147.7783203125	-640.7166137695314	-334.7083435058594	1127.471923828125	-664.2451171875001	-281.0092773437501	1001.989624023438	-830.5054321289065	-237.5569000244141	1027.20703125	-859.7781982421877	-222.4783020019532	974.2203369140627	-811.472351074219	-289.5581359863282	947.6623535156252	-1130.87255859375	-225.5668640136719	938.913269042969	-928.1346435546877	-415.9620361328126	1019.551513671875	-975.3960571289065	-431.9522705078126	990.6128540039065	-999.7753906250002	-412.2801818847657	989.0438232421877	-947.1677246093752	-379.0809936523438	792.508483886719	-1164.983764648438	-355.7232360839844	712.3131713867189	-1159.130004882813	-306.3260803222657	713.0587158203126	-1158.8701171875	-384.5007629394532	663.5723876953126	-1137.148071289063	-386.746307373047	503.7898864746095	-1100.412475585938	-332.4306640625001	505.2376403808595	-994.267517089844	-337.3240051269532	365.9583740234376	-1028.995483398438	-368.1769104003907	307.8824768066407	-1088.136108398438	-332.4589233398438	314.2582092285157	-1057.05126953125	-336.2882385253907	238.5077667236329	-1019.396667480469	-387.1339721679689	107.2038803100586	-1056.264892578125	-355.5984191894532	124.9972152709961	-980.7974853515627	-443.0777587890626	97.33264923095706	-1007.313842773438	-241.5985107421876	54.48693847656251	-995.0354614257815	-236.2162475585938	49.7265968322754	-1033.388793945313	-259.9236450195313	42.76931381225587	-1083.232177734375	-305.3668823242188	700.6535644531251	-817.3709716796877	-263.8255615234376	648.0446777343751	-808.2746582031252	-230.5050506591797	651.2677001953126	-817.6329345703127	-285.7866210937501	567.5195922851564	-814.6843261718752	-286.2741699218751	510.4284973144532	-814.2883911132815	-249.4442138671876	490.1931762695314	-923.6153564453127	-268.8985900878907	371.3362731933594	-813.3886718750002	-356.3787231445313	308.6733093261719	-792.1714477539065	-311.0373840332032	296.4723205566407	-796.096130371094	-303.1020812988282	245.2615661621094	-823.5288085937502	-392.4185180664064	123.1065292358399	-788.0891723632815	-362.4060058593751	127.1765747070313	-869.1502685546877	-449.5927734375001	109.6647491455078	-830.6653442382815	-253.5397338867188	52.50989532470705	-841.6873779296877	-249.6102294921876	54.68582916259767	-796.0495605468752	-281.4946594238282	43.16667938232423	-743.6512451171876	
290	1.445	-247.5586395263672	1639.0517578125	-1100.86328125	-383.5254821777344	1558.475708007813	-1008.360168457031	-235.6928710937501	1563.061889648438	-969.5200195312502	-383.6804199218751	1449.307495117188	-972.2189941406252	-417.6380920410157	1126.099609375	-979.123962402344	-267.1596679687501	1373.11865234375	-1036.441162109375	-401.7855529785157	1404.611328125	-1160.036010742188	-466.4180603027345	1253.912963867188	-1276.828735351563	-442.6966857910157	1210.059814453125	-1269.679077148438	-487.5567932128907	1195.914184570313	-1309.015380859375	-507.8509826660157	1146.913696289063	-1331.002075195313	-564.5166015625001	1130.448364257813	-1263.888793945313	-411.2810668945314	996.3076782226565	-1169.54833984375	-384.4900207519532	962.9758911132815	-1218.384643554688	-359.6473388671876	1019.587951660156	-1172.165893554688	-275.0844116210938	1400.682739257813	-855.1050415039065	-273.3802185058594	1272.155883789063	-704.7030029296876	-240.8948059082032	1234.80615234375	-712.8389892578126	-266.5437622070313	1216.361938476563	-660.7790527343751	-249.4451751708985	1147.847290039063	-640.6898803710939	-334.6895141601563	1127.525146484375	-664.1686401367189	-281.0765686035157	1001.973815917969	-830.487487792969	-237.5980834960938	1027.258056640625	-859.7107543945315	-222.5095520019532	974.1870727539065	-811.4565429687502	-289.4877319335938	947.728698730469	-1130.793212890625	-225.7037506103516	938.893249511719	-928.098083496094	-416.0703430175782	1019.550231933594	-975.283874511719	-432.0761718750001	990.6538696289065	-999.7056274414065	-412.4457397460939	989.0377197265627	-947.0997314453127	-379.1075134277344	792.5142211914065	-1164.939575195313	-355.8371582031251	712.2952270507814	-1158.97216796875	-306.4111938476563	713.0902099609376	-1158.859252929688	-384.5277099609376	663.6077270507814	-1137.077758789063	-386.7501220703126	503.8022766113282	-1100.39501953125	-332.5233764648438	505.1896362304689	-994.2192382812502	-337.3194274902344	365.9703369140626	-1029.015258789063	-368.0297241210938	307.9267578125001	-1088.186889648438	-332.4764709472657	314.2597351074219	-1057.017822265625	-336.3276977539063	238.4455566406251	-1019.389953613281	-387.0955810546876	107.251091003418	-1056.293701171875	-355.6026916503907	125.0087661743164	-980.7922363281252	-443.350555419922	97.4628829956055	-1007.406311035156	-241.6227416992188	54.494686126709	-995.0073242187502	-236.3265686035157	49.74131011962892	-1033.410278320313	-259.8871459960938	42.76523971557618	-1083.215454101563	-305.4107055664063	700.6192626953126	-817.2764282226565	-263.8526306152344	648.0601196289064	-808.1961059570315	-230.5841369628907	651.3329467773439	-817.5584716796877	-285.7832641601563	567.4987182617189	-814.6529541015627	-286.2411804199219	510.4082336425782	-814.2725219726565	-249.5166168212891	490.2392578125001	-923.5909423828127	-268.9037780761719	371.2771911621094	-813.3831787109377	-356.3746948242188	308.6574401855469	-792.1597900390627	-311.0195312500001	296.4168395996094	-796.0467529296877	-303.0849304199219	245.2669525146485	-823.4963989257815	-392.4047851562501	123.1404190063477	-788.103698730469	-362.4247741699219	127.2040939331055	-869.1106567382815	-449.5985412597657	109.6394119262696	-830.6433715820315	-253.5325469970704	52.5576629638672	-841.7011718750002	-249.6091461181641	54.68989181518556	-796.0530395507815	-281.4836425781251	43.21299362182618	-743.6247558593751	
291	1.45	-247.5393218994141	1639.134155273438	-1100.811645507813	-383.6446838378907	1558.5263671875	-1008.329772949219	-235.7084503173829	1563.061157226563	-969.4743652343752	-383.7245178222657	1449.279907226563	-972.1429443359377	-417.7601318359376	1126.020874023438	-978.980407714844	-267.2320556640626	1373.108764648438	-1036.400390625	-401.839080810547	1404.643432617188	-1159.992065429688	-466.5202941894532	1253.908813476563	-1276.81689453125	-442.8021240234376	1210.029052734375	-1269.668334960938	-487.5942382812501	1195.911865234375	-1308.980590820313	-507.8836059570314	1146.968139648438	-1330.973754882813	-564.6104736328126	1130.426635742188	-1263.73486328125	-411.3824768066407	996.316345214844	-1169.500244140625	-384.6934509277345	962.9848632812502	-1218.348999023438	-359.7627258300782	1019.572326660156	-1172.132690429688	-275.0787963867188	1400.655395507813	-855.0750732421877	-273.3078002929688	1272.19873046875	-704.6960449218751	-240.8060913085938	1234.88623046875	-712.7860717773439	-266.4522705078126	1216.35498046875	-660.7716674804689	-249.3396759033204	1147.843139648438	-640.6704101562501	-334.6150512695313	1127.635986328125	-663.9611816406251	-281.1515808105469	1001.99951171875	-830.424499511719	-237.6324920654297	1027.252197265625	-859.660827636719	-222.6182403564454	974.1416015625002	-811.4565429687502	-289.9227905273438	947.6030883789065	-1130.7392578125	-225.7593841552735	938.9568481445315	-928.0325927734377	-416.1265869140626	1019.537658691406	-975.2446899414065	-432.1680603027345	990.6483154296877	-999.6499633789065	-412.5188903808595	988.9655761718752	-947.0406494140627	-379.2026672363282	792.504577636719	-1164.91748046875	-355.9622497558594	712.3010253906251	-1158.894409179688	-306.4871520996094	713.1182250976564	-1158.796630859375	-385.5210266113282	663.8037719726564	-1137.195190429688	-386.7403869628907	503.8338012695314	-1100.403442382813	-332.4849243164063	505.1577758789064	-994.2526855468752	-337.3726196289063	365.9471740722657	-1028.97119140625	-368.1025085449219	307.9366455078126	-1088.153686523438	-332.5484619140626	314.2816467285157	-1057.001586914063	-336.3334655761719	238.4608154296876	-1019.363342285156	-387.1266174316407	107.2195129394532	-1056.299560546875	-355.5894165039063	124.9572982788086	-980.7955322265627	-443.3644409179689	97.47399902343753	-1007.372802734375	-241.5350494384766	54.54000473022462	-995.047546386719	-236.2362518310547	49.74611282348634	-1033.325073242188	-259.9827880859376	42.76131439208985	-1083.25048828125	-305.4971313476563	700.6050415039064	-817.2233886718752	-263.9314880371094	648.0509643554689	-808.1134033203127	-230.5355072021485	651.2916870117189	-817.5232543945315	-285.7435302734376	567.5106811523439	-814.557800292969	-286.1889343261719	510.3701171875001	-814.194274902344	-249.3358001708985	490.2102050781251	-923.5151977539065	-268.8771362304688	371.2652282714844	-813.3027954101565	-356.3777770996094	308.6402282714844	-792.1232910156252	-311.0018005371094	296.4073181152344	-796.0510253906252	-303.1383972167969	245.2735595703126	-823.511657714844	-392.4196166992189	123.1556549072266	-788.103210449219	-362.3579101562501	127.2135162353516	-869.1315917968752	-449.5641174316407	109.6439514160157	-830.6837158203127	-253.5116119384766	52.56630325317384	-841.6784667968752	-249.5953216552735	54.71566390991212	-796.042663574219	-281.4407653808594	43.21989440917969	-743.6350097656251	
292	1.455	-247.7658691406251	1639.146484375	-1100.776123046875	-383.7537841796876	1558.50537109375	-1008.215881347656	-235.7872314453126	1563.02783203125	-969.3665771484377	-383.8056945800782	1449.260131835938	-972.1286621093752	-417.8523254394532	1125.990478515625	-978.931823730469	-267.3567810058594	1373.1123046875	-1036.439208984375	-401.9119262695314	1404.665283203125	-1159.977661132813	-466.4617309570314	1253.88427734375	-1276.76025390625	-442.9536132812501	1210.028442382813	-1269.58203125	-487.6835327148439	1195.90966796875	-1308.9462890625	-507.9186401367189	1147.004028320313	-1330.913330078125	-564.6618041992189	1130.372802734375	-1263.844848632813	-411.581756591797	996.2190551757815	-1169.4013671875	-384.6443176269532	962.977722167969	-1218.204345703125	-360.1010131835938	1019.605407714844	-1172.093627929688	-275.0804748535157	1400.705078125	-855.0742797851565	-273.2894287109376	1272.20068359375	-704.6795043945314	-240.7133331298829	1234.88818359375	-712.8072509765626	-266.3536376953126	1216.390747070313	-660.7580566406251	-249.2960510253907	1147.853881835938	-640.6488647460939	-334.5923156738282	1127.619140625	-664.0507812500001	-281.2324218750001	1001.998779296875	-830.3698730468752	-237.7891387939454	1027.079833984375	-859.7088012695315	-222.7100372314454	974.102966308594	-811.3753051757815	-289.9669189453126	947.550720214844	-1130.724365234375	-225.9258880615235	938.9270629882815	-927.982360839844	-416.237274169922	1019.477416992188	-975.1834106445315	-432.3284606933595	990.591003417969	-999.5274658203127	-412.6570739746095	988.9631958007815	-946.9282226562502	-379.4156799316407	792.505310058594	-1164.8154296875	-356.0236511230469	712.3073730468751	-1158.86376953125	-306.6011352539063	713.1844482421876	-1158.80078125	-384.576385498047	663.5509033203126	-1136.941040039063	-386.8989257812501	503.8272094726564	-1100.34912109375	-332.4757385253907	505.165985107422	-994.1961059570315	-337.3673706054688	365.9662170410157	-1028.910522460938	-368.0322875976563	307.8972167968751	-1088.175415039063	-332.5405273437501	314.2914428710938	-1056.98388671875	-336.3043212890626	238.4672851562501	-1019.354919433594	-387.1398010253907	107.2320785522461	-1056.276977539063	-355.5462646484376	125.0046157836914	-980.7713623046877	-443.3801269531251	97.45815277099612	-1007.369262695313	-241.5246124267579	54.50205993652345	-995.0457763671877	-236.3106231689454	49.7851905822754	-1033.398681640625	-260.0131225585938	42.79899597167969	-1083.260009765625	-305.5330200195313	700.5893554687501	-817.1387329101565	-263.9366455078126	648.0241088867189	-808.0839843750002	-230.610336303711	651.3811645507814	-817.410095214844	-285.7667541503907	567.4664306640626	-814.5256958007815	-286.1973876953126	510.3581848144532	-814.1094360351565	-249.3270568847657	490.2300415039064	-923.4058837890627	-269.1791687011719	371.4837036132813	-813.265563964844	-356.3451538085938	308.6150817871094	-792.0941162109377	-310.9830017089844	296.4201965332032	-796.0064086914065	-303.0831604003907	245.2436828613282	-823.4918212890627	-392.4161071777345	123.1463088989258	-788.1033325195315	-362.4360656738282	127.2083892822266	-869.143981933594	-449.5706481933595	109.6431121826172	-830.6674804687502	-253.5160217285157	52.50930404663087	-841.7059326171877	-249.600082397461	54.67821121215822	-796.035583496094	-281.4851379394532	43.2202377319336	-743.6480102539064	
